<?xml version="1.0" standalone="no"?>
<!DOCTYPE svg PUBLIC "-//W3C//DTD SVG 20010904//EN"
 "http://www.w3.org/TR/2001/REC-SVG-20010904/DTD/svg10.dtd">
<svg version="1.0" xmlns="http://www.w3.org/2000/svg"
 width="512.000000pt" height="512.000000pt" viewBox="0 0 512.000000 512.000000"
 preserveAspectRatio="xMidYMid meet">
<metadata>
Created by potrace 1.14, written by Peter Selinger 2001-2017
</metadata>
<g transform="translate(0.000000,512.000000) scale(0.100000,-0.100000)"
fill="#000000" stroke="none">
<path d="M4920 5100 c-54 -18 -146 -46 -285 -88 -90 -27 -407 -109 -488 -126
-34 -8 -170 -39 -302 -70 -132 -31 -280 -65 -330 -77 -770 -177 -1183 -311
-1570 -509 -283 -145 -456 -269 -661 -474 -299 -300 -496 -673 -600 -1141 -10
-44 -19 -82 -19 -85 -1 -3 -5 -32 -10 -65 -5 -33 -10 -62 -10 -65 -1 -3 -5
-36 -9 -75 -5 -38 -10 -79 -13 -90 -24 -121 -23 -747 2 -955 2 -19 6 -57 9
-85 7 -63 14 -97 25 -127 7 -21 -7 -60 -30 -78 -15 -12 -182 -244 -242 -335
-131 -202 -176 -295 -257 -535 -25 -73 -31 -108 -19 -116 13 -8 88 69 184 191
250 315 446 531 591 651 l41 34 159 -29 c87 -16 182 -32 209 -36 71 -9 100
-13 143 -19 20 -3 66 -8 102 -11 36 -4 84 -8 106 -11 183 -20 594 -20 774 1
25 2 70 7 100 10 326 35 680 139 972 285 515 258 940 723 1173 1280 15 36 33
79 40 95 54 123 167 497 191 635 3 14 11 57 19 95 7 39 16 88 19 109 4 21 8
48 11 60 6 27 15 89 21 146 2 25 6 59 9 75 2 17 6 59 10 95 3 36 8 83 10 105
19 186 25 722 11 982 -9 173 -24 364 -29 369 -1 1 -27 -6 -57 -16z"/>
</g>
</svg>
